<?xml version="1.0" encoding="UTF-8"?>
<svg id="Calque_1" data-name="Calque 1" xmlns="http://www.w3.org/2000/svg" viewBox="0 0 188.65 202.51">
  <defs>
    <style>
      .cls-1, .cls-2 {
        fill: #fff;
        stroke: #000;
        stroke-miterlimit: 10;
        stroke-width: 4px;
      }

      .cls-2 {
        stroke-linecap: round;
      }
    </style>
  </defs>
  <path class="cls-1" d="M92.33,2c177.61,0,59.7,198.51,5.97,198.51S-85.28,2,92.33,2Z"/>
  <path d="M93.05,126.51s-5.47,10.95-2.64,11.48,2.64-11.48,2.64-11.48Z"/>
  <path d="M95.6,126.51s5.47,10.95,2.64,11.48-2.64-11.48-2.64-11.48Z"/>
  <path d="M33.39,63.67c40.26,0,42.32,19.61,41.81,30.45-39.74,0-41.81-30.45-41.81-30.45Z"/>
  <path d="M155.26,63.67c-40.26,0-42.32,19.61-41.81,30.45,39.74,0,41.81-30.45,41.81-30.45Z"/>
  <path class="cls-2" d="M107.15,160.98c-13.7,7.22-25.65-1.07-25.65-1.07"/>
</svg>