<?xml version="1.0" encoding="UTF-8"?>
<svg id="Calque_1" data-name="Calque 1" xmlns="http://www.w3.org/2000/svg" viewBox="0 0 14400 14400">
  <defs>
    <style>
      .cls-1, .cls-2 {
        fill: #fff;
        stroke: #000;
        stroke-miterlimit: 10;
        stroke-width: 4px;
      }

      .cls-2 {
        stroke-linecap: round;
      }
    </style>
  </defs>
  <path class="cls-1" d="M7197.51,7089.8c177.61,0,59.7,198.51,5.97,198.51s-183.58-198.51-5.97-198.51Z"/>
  <path d="M7198.22,7214.31s-5.47,10.95-2.64,11.48,2.64-11.48,2.64-11.48Z"/>
  <path d="M7200.78,7214.31s5.47,10.95,2.64,11.48-2.64-11.48-2.64-11.48Z"/>
  <path d="M7138.57,7151.47c40.26,0,42.32,19.61,41.81,30.45-39.74,0-41.81-30.45-41.81-30.45Z"/>
  <path d="M7260.43,7151.47c-40.26,0-42.32,19.61-41.81,30.45,39.74,0,41.81-30.45,41.81-30.45Z"/>
  <path class="cls-2" d="M7212.32,7248.78c-13.7,7.22-25.65-1.07-25.65-1.07"/>
</svg>